<?xml version="1.0" standalone="no"?>
<!DOCTYPE svg PUBLIC "-//W3C//DTD SVG 20010904//EN"
 "http://www.w3.org/TR/2001/REC-SVG-20010904/DTD/svg10.dtd">
<svg version="1.0" xmlns="http://www.w3.org/2000/svg"
 width="263.000000pt" height="153.000000pt" viewBox="0 0 263.000000 153.000000"
 preserveAspectRatio="xMidYMid meet">

<g transform="translate(0.000000,153.000000) scale(0.100000,-0.100000)"
fill="#000000" stroke="none">
<path d="M1045 1365 c-148 -19 -292 -37 -320 -40 -49 -6 -54 -10 -275 -225
-124 -120 -223 -220 -220 -223 3 -3 73 60 155 141 83 82 184 180 225 219 l75
71 323 38 c177 21 322 42 322 46 0 4 -3 8 -7 7 -5 -1 -129 -16 -278 -34z"/>
<path d="M960 1323 l-275 -34 -207 -206 c-114 -114 -206 -208 -204 -210 1 -2
47 6 102 17 157 31 143 25 137 68 -5 37 -2 41 57 95 108 98 295 180 440 193
64 6 69 5 80 -17 7 -13 14 -26 16 -28 3 -3 204 149 204 155 0 8 -83 0 -350
-33z"/>
<path d="M945 1215 c-84 -18 -187 -59 -255 -100 -73 -44 -160 -122 -160 -142
0 -9 19 -49 42 -88 l43 -73 58 54 c75 69 228 145 362 179 54 14 100 27 102 29
2 2 -13 37 -33 80 -41 86 -42 87 -159 61z"/>
<path d="M1110 1035 c-52 -12 -46 -13 118 -14 l172 -1 0 -131 c0 -100 3 -130
13 -127 8 3 13 41 15 130 3 163 8 158 -146 157 -64 -1 -142 -7 -172 -14z"/>
<path d="M2283 993 c9 -2 23 -2 30 0 6 3 -1 5 -18 5 -16 0 -22 -2 -12 -5z"/>
<path d="M2135 983 c-16 -2 -84 -15 -151 -28 -366 -73 -675 -241 -764 -415
-32 -63 -25 -145 17 -197 31 -39 133 -98 188 -108 28 -6 27 -4 -10 16 -67 37
-105 70 -132 116 -131 223 254 499 842 602 94 17 101 26 10 14z"/>
<path d="M398 874 c-5 -4 -8 -47 -8 -96 0 -48 -4 -88 -8 -88 -5 0 -8 -37 -8
-83 l1 -83 26 4 c25 4 26 5 18 55 -6 34 -5 55 3 64 8 10 8 19 0 36 -7 12 -13
62 -14 110 -2 49 -6 85 -10 81z"/>
<path d="M633 799 c-14 -14 -19 -183 -7 -213 5 -14 41 -16 294 -16 179 0 291
4 295 10 4 6 -95 11 -277 12 l-283 3 -5 108 c-4 87 -7 106 -17 96z"/>
<path d="M966 542 c-3 -5 -16 -39 -29 -75 l-25 -67 109 0 c60 0 109 3 109 8 0
4 -11 36 -24 72 l-24 65 -55 3 c-30 2 -58 -1 -61 -6z"/>
<path d="M654 330 l-69 -50 340 0 c223 0 335 4 325 10 -9 6 -135 10 -305 10
l-290 0 30 25 c30 24 30 24 268 25 186 0 238 3 235 13 -4 9 -62 13 -235 15
l-230 2 -69 -50z"/>
<path d="M1470 331 c0 -6 5 -11 12 -11 9 0 9 -3 1 -11 -8 -8 -17 -8 -32 0 -18
10 -21 9 -21 -8 0 -28 42 -53 98 -59 73 -7 96 35 40 72 -31 20 -98 32 -98 17z"/>
<path d="M570 252 c0 -5 7 -13 16 -16 9 -3 183 -6 387 -6 339 1 369 2 344 16
-25 13 -136 16 -262 5 -5 0 -117 2 -247 5 -159 4 -238 3 -238 -4z m88 -9 c-10
-2 -26 -2 -35 0 -10 3 -2 5 17 5 19 0 27 -2 18 -5z"/>
</g>
</svg>
